<svg width="38" height="63" viewBox="0 0 38 63" fill="none" xmlns="http://www.w3.org/2000/svg">
<path d="M28.8871 30.3601C29.7194 28.3921 31.9895 27.4715 33.9574 28.3038C35.9254 29.1362 36.846 31.4062 36.0137 33.3742L25.1846 58.9789C24.3523 60.9468 22.0823 61.8674 20.1143 61.0351C18.1463 60.2028 17.2257 57.9327 18.058 55.9648L28.8871 30.3601Z" fill="#F27405"/>
<path d="M4.65703 35.3227C2.5203 35.3227 0.788147 33.5905 0.788147 31.4538C0.788147 29.3171 2.52031 27.5849 4.65704 27.5849H32.4575C34.5943 27.5849 36.3264 29.3171 36.3264 31.4538C36.3264 33.5905 34.5943 35.3227 32.4575 35.3227H4.65703Z" fill="#F27405"/>
<path d="M12.3361 3.56331C13.1684 1.59535 15.4385 0.674733 17.4065 1.50705C19.3744 2.33936 20.2951 4.60943 19.4627 6.57739L8.63367 32.1821C7.80136 34.15 5.53129 35.0706 3.56333 34.2383C1.59537 33.406 0.674749 31.1359 1.50707 29.168L12.3361 3.56331Z" fill="#F27405"/>
</svg>
