<svg width="30" height="30" viewBox="0 0 30 30" fill="none" xmlns="http://www.w3.org/2000/svg">
<path d="M26.526 9.25415L18.6896 8.52735L15.5768 1.29903C15.3588 0.7929 14.6412 0.7929 14.4233 1.29903L11.3104 8.52729L3.47403 9.25415C2.9253 9.30501 2.70358 9.98751 3.11755 10.3512L9.03014 15.5453L7.2998 23.2228C7.17863 23.7604 7.75924 24.1822 8.23303 23.9009L15 19.8827L21.767 23.9009C22.2409 24.1822 22.8214 23.7604 22.7003 23.2228L20.9699 15.5453L26.8825 10.3512C27.2965 9.98751 27.0747 9.30501 26.526 9.25415Z" fill="#FFDC64"/>
<path d="M16.7087 3.92755L15.5767 1.29903C15.3587 0.7929 14.6411 0.7929 14.4232 1.29903L11.3104 8.52729L3.47403 9.25415C2.9253 9.30501 2.70358 9.98751 3.11755 10.3512L9.03014 15.5453L7.2998 23.2228C7.17863 23.7604 7.75924 24.1822 8.23303 23.9009L9.13367 23.3661C10.6102 13.8082 14.7611 6.79209 16.7087 3.92755Z" fill="#FFC850"/>
</svg>
